<svg xmlns="http://www.w3.org/2000/svg" viewBox="0 0 100 100">
  <rect width="100" height="100" fill="#006437"/>
  <g fill="#ffffff" transform="translate(50 52)">
    <rect x="-3" y="-2" width="6" height="28" rx="2"/>
    <path d="M0 -2 C0 -2 -20 -10 -32 -2 C-18 -10 -6 -7 0 -2 Z"/>
    <path d="M0 -3 C0 -3 20 -11 32 -3 C18 -11 6 -8 0 -3 Z"/>
    <path d="M0 -4 C0 -4 -14 -24 -26 -30 C-10 -22 -4 -12 0 -4 Z"/>
    <path d="M0 -4 C0 -4 14 -24 26 -30 C10 -22 4 -12 0 -4 Z"/>
    <path d="M0 -5 C0 -5 -2 -28 0 -38 C2 -28 0 -14 0 -5 Z"/>
    <circle cx="0" cy="-30" r="6"/>
  </g>
</svg>
