<svg xmlns="http://www.w3.org/2000/svg" viewBox="0 0 32 32">
  <rect width="32" height="32" rx="7" fill="#006437"/>
  <g fill="#ffffff">
    <rect x="15" y="17" width="2.4" height="9" rx="1"/>
    <path d="M16 17 C16 17 9 14 5 17 C10 14 14 15 16 17 Z"/>
    <path d="M16 16 C16 16 23 13 27 16 C22 13 18 14 16 16 Z"/>
    <path d="M16 15 C16 15 11 8 6 6 C13 9 15 13 16 15 Z"/>
    <path d="M16 15 C16 15 21 8 26 6 C19 9 17 13 16 15 Z"/>
    <path d="M16 14 C16 14 15 6 16 2 C17 6 16 11 16 14 Z"/>
    <circle cx="16" cy="8" r="2.4"/>
  </g>
</svg>
